<svg xmlns="http://www.w3.org/2000/svg" xmlns:xlink="http://www.w3.org/1999/xlink" width="150" zoomAndPan="magnify" viewBox="0 0 112.5 74.999997" height="100" preserveAspectRatio="xMidYMid meet" version="1.0"><defs><g/><clipPath id="eead81f527"><path d="M 21.03125 29.128906 L 38.53125 29.128906 L 38.53125 46.628906 L 21.03125 46.628906 Z M 21.03125 29.128906 " clip-rule="nonzero"/></clipPath><clipPath id="6758ffc9f3"><path d="M 29.78125 29.128906 C 34.613281 29.128906 38.53125 33.046875 38.53125 37.878906 C 38.53125 42.710938 34.613281 46.628906 29.78125 46.628906 C 24.949219 46.628906 21.03125 42.710938 21.03125 37.878906 C 21.03125 33.046875 24.949219 29.128906 29.78125 29.128906 Z M 29.78125 29.128906 " clip-rule="nonzero"/></clipPath><clipPath id="4188d13f79"><path d="M 22.769531 32.632812 L 26 32.632812 L 26 43.054688 L 22.769531 43.054688 Z M 22.769531 32.632812 " clip-rule="nonzero"/></clipPath><clipPath id="b426c6af4b"><path d="M 33.097656 32.632812 L 36.820312 32.632812 L 36.820312 43.054688 L 33.097656 43.054688 Z M 33.097656 32.632812 " clip-rule="nonzero"/></clipPath></defs><g fill="#ffffff" fill-opacity="1"><g transform="translate(41.326681, 40.680692)"><g><path d="M 4 0 L 0.53125 0 L 0.53125 -5.25 L 0.40625 -5.71875 L 4 -5.71875 L 4 -4.953125 L 1.59375 -4.953125 L 1.59375 -3.328125 L 3.4375 -3.328125 L 3.4375 -2.5625 L 1.59375 -2.5625 L 1.59375 -0.78125 L 4 -0.78125 Z M 4 0 "/></g></g></g><g fill="#ffffff" fill-opacity="1"><g transform="translate(45.488349, 40.680692)"><g><path d="M 4.359375 -0.78125 L 4.265625 0 L 0.109375 0 L 0.109375 -0.640625 L 2.84375 -4.953125 L 0.296875 -4.953125 L 0.296875 -5.71875 L 4.21875 -5.71875 L 4.21875 -5.15625 L 1.421875 -0.78125 Z M 4.359375 -0.78125 "/></g></g></g><g fill="#ffffff" fill-opacity="1"><g transform="translate(49.821798, 40.680692)"><g><path d="M 4 0 L 0.53125 0 L 0.53125 -5.25 L 0.40625 -5.71875 L 4 -5.71875 L 4 -4.953125 L 1.59375 -4.953125 L 1.59375 -3.328125 L 3.4375 -3.328125 L 3.4375 -2.5625 L 1.59375 -2.5625 L 1.59375 -0.78125 L 4 -0.78125 Z M 4 0 "/></g></g></g><g fill="#ffffff" fill-opacity="1"><g transform="translate(53.983466, 40.680692)"><g><path d="M 9.25 1.28125 C 8.738281 1.457031 8.375 1.566406 8.15625 1.609375 C 7.945312 1.660156 7.664062 1.6875 7.3125 1.6875 C 7.082031 1.6875 6.832031 1.65625 6.5625 1.59375 C 6.300781 1.539062 6.007812 1.453125 5.6875 1.328125 C 5.375 1.210938 5.113281 1.109375 4.90625 1.015625 C 4.695312 0.929688 4.410156 0.804688 4.046875 0.640625 C 3.679688 0.472656 3.453125 0.367188 3.359375 0.328125 C 3.203125 0.265625 2.867188 0.175781 2.359375 0.0625 C 1.597656 -0.101562 1.039062 -0.445312 0.6875 -0.96875 C 0.332031 -1.488281 0.15625 -2.113281 0.15625 -2.84375 C 0.15625 -3.238281 0.210938 -3.609375 0.328125 -3.953125 C 0.441406 -4.304688 0.609375 -4.625 0.828125 -4.90625 C 1.046875 -5.1875 1.332031 -5.40625 1.6875 -5.5625 C 2.039062 -5.726562 2.441406 -5.8125 2.890625 -5.8125 C 3.335938 -5.8125 3.738281 -5.726562 4.09375 -5.5625 C 4.445312 -5.40625 4.734375 -5.1875 4.953125 -4.90625 C 5.171875 -4.625 5.332031 -4.304688 5.4375 -3.953125 C 5.550781 -3.609375 5.609375 -3.238281 5.609375 -2.84375 C 5.609375 -2.300781 5.492188 -1.789062 5.265625 -1.3125 C 5.035156 -0.84375 4.675781 -0.476562 4.1875 -0.21875 L 4.28125 -0.171875 C 4.707031 0.0351562 5.054688 0.203125 5.328125 0.328125 C 5.609375 0.453125 5.984375 0.585938 6.453125 0.734375 C 6.921875 0.878906 7.3125 0.953125 7.625 0.953125 C 7.976562 0.953125 8.460938 0.863281 9.078125 0.6875 Z M 4.46875 -2.84375 C 4.46875 -3.226562 4.414062 -3.582031 4.3125 -3.90625 C 4.21875 -4.226562 4.046875 -4.5 3.796875 -4.71875 C 3.554688 -4.945312 3.253906 -5.0625 2.890625 -5.0625 C 2.523438 -5.0625 2.21875 -4.945312 1.96875 -4.71875 C 1.726562 -4.5 1.554688 -4.226562 1.453125 -3.90625 C 1.359375 -3.582031 1.3125 -3.226562 1.3125 -2.84375 C 1.3125 -2.457031 1.359375 -2.109375 1.453125 -1.796875 C 1.554688 -1.484375 1.726562 -1.21875 1.96875 -1 C 2.21875 -0.78125 2.523438 -0.671875 2.890625 -0.671875 C 3.421875 -0.671875 3.816406 -0.878906 4.078125 -1.296875 C 4.335938 -1.722656 4.46875 -2.238281 4.46875 -2.84375 Z M 4.46875 -2.84375 "/></g></g></g><g fill="#ffffff" fill-opacity="1"><g transform="translate(59.613036, 40.680692)"><g><path d="M 5.03125 -2.171875 C 5.03125 -1.398438 4.828125 -0.828125 4.421875 -0.453125 C 4.015625 -0.0859375 3.46875 0.09375 2.78125 0.09375 C 2.0625 0.09375 1.503906 -0.0976562 1.109375 -0.484375 C 0.722656 -0.878906 0.53125 -1.441406 0.53125 -2.171875 L 0.53125 -5.25 L 0.40625 -5.71875 L 1.640625 -5.71875 L 1.640625 -1.921875 C 1.640625 -1.535156 1.753906 -1.226562 1.984375 -1 C 2.210938 -0.769531 2.515625 -0.65625 2.890625 -0.65625 C 3.273438 -0.65625 3.582031 -0.765625 3.8125 -0.984375 C 4.039062 -1.210938 4.15625 -1.523438 4.15625 -1.921875 L 4.15625 -5.71875 L 5.03125 -5.71875 Z M 5.03125 -2.171875 "/></g></g></g><g fill="#ffffff" fill-opacity="1"><g transform="translate(65.008368, 40.680692)"><g><path d="M 1.59375 0 L 0.515625 0 L 0.515625 -5.25 C 0.515625 -5.25 0.503906 -5.285156 0.484375 -5.359375 C 0.472656 -5.429688 0.457031 -5.503906 0.4375 -5.578125 C 0.414062 -5.660156 0.40625 -5.707031 0.40625 -5.71875 L 1.59375 -5.71875 Z M 1.59375 0 "/></g></g></g><g fill="#ffffff" fill-opacity="1"><g transform="translate(66.975984, 40.680692)"><g><path d="M 4.921875 0 L 3.765625 0 L 3.203125 -1.640625 L 1.515625 -1.640625 L 0.921875 0 L 0.015625 0 L 2.046875 -5.71875 L 2.890625 -5.71875 Z M 2.9375 -2.40625 C 2.6875 -3.175781 2.488281 -3.828125 2.34375 -4.359375 C 2.164062 -3.710938 1.976562 -3.0625 1.78125 -2.40625 Z M 2.9375 -2.40625 "/></g></g></g><g fill="#ffffff" fill-opacity="1"><g transform="translate(71.777909, 40.680692)"><g><path d="M 3.875 -1.6875 C 3.875 -1.132812 3.679688 -0.695312 3.296875 -0.375 C 2.910156 -0.0625 2.4375 0.09375 1.875 0.09375 C 1.15625 0.09375 0.539062 -0.0546875 0.03125 -0.359375 L 0.40625 -1.234375 C 0.8125 -0.847656 1.265625 -0.65625 1.765625 -0.65625 C 2.035156 -0.65625 2.265625 -0.726562 2.453125 -0.875 C 2.640625 -1.019531 2.734375 -1.222656 2.734375 -1.484375 C 2.734375 -1.671875 2.671875 -1.835938 2.546875 -1.984375 C 2.421875 -2.128906 2.265625 -2.242188 2.078125 -2.328125 C 1.898438 -2.410156 1.703125 -2.507812 1.484375 -2.625 C 1.265625 -2.738281 1.0625 -2.851562 0.875 -2.96875 C 0.6875 -3.082031 0.53125 -3.242188 0.40625 -3.453125 C 0.28125 -3.660156 0.21875 -3.90625 0.21875 -4.1875 C 0.21875 -4.71875 0.40625 -5.117188 0.78125 -5.390625 C 1.15625 -5.671875 1.648438 -5.8125 2.265625 -5.8125 C 2.503906 -5.8125 2.773438 -5.765625 3.078125 -5.671875 C 3.390625 -5.578125 3.625 -5.46875 3.78125 -5.34375 L 3.25 -4.671875 C 2.957031 -4.929688 2.597656 -5.0625 2.171875 -5.0625 C 1.953125 -5.0625 1.757812 -5.003906 1.59375 -4.890625 C 1.4375 -4.773438 1.359375 -4.613281 1.359375 -4.40625 C 1.359375 -4.226562 1.421875 -4.066406 1.546875 -3.921875 C 1.671875 -3.785156 1.828125 -3.675781 2.015625 -3.59375 C 2.203125 -3.507812 2.40625 -3.410156 2.625 -3.296875 C 2.84375 -3.179688 3.039062 -3.066406 3.21875 -2.953125 C 3.40625 -2.835938 3.5625 -2.671875 3.6875 -2.453125 C 3.8125 -2.234375 3.875 -1.976562 3.875 -1.6875 Z M 3.875 -1.6875 "/></g></g></g><g fill="#ffffff" fill-opacity="1"><g transform="translate(75.681917, 40.680692)"><g><path d="M 1.25 -0.9375 C 1.375 -0.820312 1.4375 -0.679688 1.4375 -0.515625 C 1.4375 -0.347656 1.375 -0.203125 1.25 -0.078125 C 1.132812 0.0351562 0.992188 0.09375 0.828125 0.09375 C 0.660156 0.09375 0.519531 0.0351562 0.40625 -0.078125 C 0.289062 -0.203125 0.234375 -0.347656 0.234375 -0.515625 C 0.234375 -0.679688 0.289062 -0.820312 0.40625 -0.9375 C 0.519531 -1.0625 0.660156 -1.125 0.828125 -1.125 C 0.992188 -1.125 1.132812 -1.0625 1.25 -0.9375 Z M 1.25 -0.9375 "/></g></g></g><g fill="#0b1c98" fill-opacity="1"><g transform="translate(77.346974, 40.680692)"><g><path d="M 5.3125 -2.859375 C 5.3125 -1.984375 5.046875 -1.28125 4.515625 -0.75 C 4.015625 -0.25 3.363281 0 2.5625 0 L 0.53125 0 L 0.53125 -5.25 C 0.53125 -5.25 0.507812 -5.320312 0.46875 -5.46875 C 0.425781 -5.625 0.40625 -5.707031 0.40625 -5.71875 L 2.5625 -5.71875 C 3.425781 -5.71875 4.097656 -5.457031 4.578125 -4.9375 C 5.066406 -4.414062 5.3125 -3.722656 5.3125 -2.859375 Z M 4.15625 -2.828125 C 4.15625 -3.203125 4.101562 -3.539062 4 -3.84375 C 3.894531 -4.15625 3.710938 -4.414062 3.453125 -4.625 C 3.203125 -4.84375 2.882812 -4.953125 2.5 -4.953125 L 1.609375 -4.953125 L 1.609375 -0.78125 L 2.515625 -0.78125 C 2.796875 -0.78125 3.046875 -0.832031 3.265625 -0.9375 C 3.484375 -1.050781 3.65625 -1.207031 3.78125 -1.40625 C 3.90625 -1.601562 4 -1.816406 4.0625 -2.046875 C 4.125 -2.285156 4.15625 -2.546875 4.15625 -2.828125 Z M 4.15625 -2.828125 "/></g></g></g><g fill="#0b1c98" fill-opacity="1"><g transform="translate(82.679848, 40.680692)"><g><path d="M 4 0 L 0.53125 0 L 0.53125 -5.25 L 0.40625 -5.71875 L 4 -5.71875 L 4 -4.953125 L 1.59375 -4.953125 L 1.59375 -3.328125 L 3.4375 -3.328125 L 3.4375 -2.5625 L 1.59375 -2.5625 L 1.59375 -0.78125 L 4 -0.78125 Z M 4 0 "/></g></g></g><g fill="#0b1c98" fill-opacity="1"><g transform="translate(86.841516, 40.680692)"><g><path d="M 4.71875 -5.71875 L 2.734375 0.015625 L 1.96875 0.015625 L 0 -5.71875 L 1.140625 -5.71875 C 1.847656 -3.65625 2.222656 -2.566406 2.265625 -2.453125 C 2.335938 -2.222656 2.410156 -1.925781 2.484375 -1.5625 C 2.554688 -1.914062 2.660156 -2.269531 2.796875 -2.625 L 3.84375 -5.71875 Z M 4.71875 -5.71875 "/></g></g></g><g clip-path="url(#eead81f527)"><g clip-path="url(#6758ffc9f3)"><path fill="#0b1c98" d="M 21.03125 29.128906 L 38.53125 29.128906 L 38.53125 46.628906 L 21.03125 46.628906 Z M 21.03125 29.128906 " fill-opacity="1" fill-rule="nonzero"/></g></g><g clip-path="url(#4188d13f79)"><path fill="#efefef" d="M 25.6875 33.796875 L 25.976562 33.796875 L 25.976562 32.632812 L 25.6875 32.632812 C 24.71875 32.632812 23.9375 33.414062 23.9375 34.378906 L 23.9375 36.421875 C 23.9375 36.605469 23.851562 36.777344 23.703125 36.886719 L 23.003906 37.410156 C 22.863281 37.515625 22.777344 37.679688 22.773438 37.855469 C 22.765625 38.027344 22.835938 38.199219 22.96875 38.3125 L 23.742188 39 C 23.867188 39.113281 23.9375 39.269531 23.9375 39.4375 L 23.9375 41.375 C 23.9375 42.339844 24.71875 43.125 25.6875 43.125 L 25.976562 43.125 L 25.976562 41.957031 L 25.6875 41.957031 C 25.363281 41.957031 25.101562 41.699219 25.101562 41.375 L 25.101562 39.4375 C 25.101562 38.9375 24.890625 38.460938 24.515625 38.128906 L 24.273438 37.917969 L 24.402344 37.820312 C 24.84375 37.488281 25.101562 36.972656 25.101562 36.421875 L 25.101562 34.378906 C 25.101562 34.058594 25.363281 33.796875 25.6875 33.796875 Z M 25.6875 33.796875 " fill-opacity="1" fill-rule="evenodd"/></g><g clip-path="url(#b426c6af4b)"><path fill="#efefef" d="M 33.929688 33.796875 L 33.636719 33.796875 L 33.636719 32.632812 L 33.929688 32.632812 C 34.894531 32.632812 35.675781 33.414062 35.675781 34.378906 L 35.675781 36.421875 C 35.675781 36.605469 35.765625 36.777344 35.910156 36.886719 L 36.609375 37.410156 C 36.75 37.515625 36.835938 37.679688 36.84375 37.855469 C 36.851562 38.027344 36.777344 38.199219 36.648438 38.3125 L 35.875 39 C 35.75 39.113281 35.675781 39.269531 35.675781 39.4375 L 35.675781 41.375 C 35.675781 42.339844 34.894531 43.125 33.929688 43.125 L 33.636719 43.125 L 33.636719 41.957031 L 33.929688 41.957031 C 34.25 41.957031 34.511719 41.699219 34.511719 41.375 L 34.511719 39.4375 C 34.511719 38.9375 34.726562 38.460938 35.097656 38.128906 L 35.339844 37.917969 L 35.210938 37.820312 C 34.769531 37.488281 34.511719 36.972656 34.511719 36.421875 L 34.511719 34.378906 C 34.511719 34.058594 34.25 33.796875 33.929688 33.796875 Z M 33.929688 33.796875 " fill-opacity="1" fill-rule="evenodd"/></g><g fill="#ffffff" fill-opacity="1"><g transform="translate(27.03522, 41.405409)"><g><path d="M 5.34375 0 L 0.703125 0 L 0.703125 -7 L 0.546875 -7.625 L 5.34375 -7.625 L 5.34375 -6.59375 L 2.125 -6.59375 L 2.125 -4.4375 L 4.578125 -4.4375 L 4.578125 -3.40625 L 2.125 -3.40625 L 2.125 -1.03125 L 5.34375 -1.03125 Z M 5.34375 0 "/></g></g></g></svg>